# xmcd CD database file
#
# Track frame offsets:
#	150
#	12956
#	25948
#	38360
#	50274
#	64046
#	74581
#	88061
#	100975
#	113925
#	127104
#	139377
#	151765
#	164283
#	178570
#	192665
#	204307
#	213878
#	224774
#
# Disc length: 3149 seconds
#
# Revision: 0
# Processed by: cddbd v1.5.2PL0 Copyright (c) Steve Scherf et al.
# Submitted via: CDex 1.97
#
DISCID=160c4b13
DTITLE=Various Artist - Old Country Classics
DYEAR=1998
DGENRE=Country
TTITLE0=Pistol Packin' Mama-Al Dexter
TTITLE1=Rosalita-Al Dexter
TTITLE2=Bob Wills Special=Bob Wills and His Texas Playboys
TTITLE3=New San Antonio Rose-Bob Wills and His Texas Playboys
TTITLE4=I've Forgotten More Than You'll Ever Know-Davis Sisters
TTITLE5=Gone-Ferlin Huskey
TTITLE6=I Don't Hurt Anymore-Hank Snow
TTITLE7=I'm Movin' On-Hank Snow
TTITLE8=The Rumba Boogie-Hank Snow
TTITLE9=You Pass Me By-Hank Snow
TTITLE10=Cold Cold Heart-Hank Williams
TTITLE11=Half As Much-Hank Willkams
TTITLE12=Your Cheatin' Heart-Hank Williams
TTITLE13=Always Late-Lefty Frizzel
TTITLE14=Saginaw, Miichigan-Leftry Frizzel
TTITLE15=Mom and Dad's Waltz-Lefty Frizzel
TTITLE16=In The Jailhouse Now-Webb Pierce
TTITLE17=There Stands The Glass-Webb Pierce
TTITLE18=Steel Guitar Rag-Bob Wills
EXTD=YEAR: 1998
EXTT0=
EXTT1=
EXTT2=
EXTT3=
EXTT4=
EXTT5=
EXTT6=
EXTT7=
EXTT8=
EXTT9=
EXTT10=
EXTT11=
EXTT12=
EXTT13=
EXTT14=
EXTT15=
EXTT16=
EXTT17=
EXTT18=
PLAYORDER=
